<?xml version="1.0" standalone="no"?>
<!DOCTYPE svg PUBLIC "-//W3C//DTD SVG 20010904//EN"
 "http://www.w3.org/TR/2001/REC-SVG-20010904/DTD/svg10.dtd">
<svg version="1.0" xmlns="http://www.w3.org/2000/svg"
 width="700.000000pt" height="700.000000pt" viewBox="0 0 700.000000 700.000000"
 preserveAspectRatio="xMidYMid meet">
<metadata>
Created by potrace 1.14, written by Peter Selinger 2001-2017
</metadata>
<g transform="translate(0.000000,700.000000) scale(0.100000,-0.100000)"
fill="#000000" stroke="none">
<path d="M1170 6962 c-343 -28 -671 -206 -878 -476 -121 -157 -193 -320 -238
-533 -2 -13 -7 -49 -11 -80 -10 -80 -9 -3431 1 -3518 61 -564 530 -1026 1096
-1081 96 -9 4634 -9 4719 0 208 22 394 91 571 209 94 63 261 230 322 322 85
129 165 314 183 424 3 19 7 37 9 40 16 27 20 341 20 1833 1 1660 0 1733 -27
1898 -17 102 -92 281 -164 395 -120 187 -319 365 -498 445 -27 12 -63 28 -80
35 -57 25 -171 60 -230 69 -16 3 -48 8 -70 12 -37 6 -4646 13 -4725 6z"/>
<path d="M263 640 c-162 -38 -267 -232 -213 -394 30 -89 116 -172 204 -198 61
-18 6411 -19 6480 -2 176 45 271 227 211 404 -24 72 -100 149 -175 178 l-55
21 -3210 -1 c-1765 0 -3224 -3 -3242 -8z"/>
</g>
</svg>
