<svg width="178" height="46" viewBox="0 0 178 46" fill="none" xmlns="http://www.w3.org/2000/svg">
<path d="M18.24 17.72C19.88 17.72 21.1201 18.3 21.9601 19.46C22.8201 20.62 23.25 21.96 23.25 23.48V33.32H20.5201V24.02C20.5201 22.72 20.28 21.77 19.8 21.17C19.34 20.55 18.56 20.24 17.46 20.24C15.74 20.24 14.3 21.2 13.14 23.12V33.32H10.41V24.02C10.41 22.72 10.18 21.77 9.72005 21.17C9.26005 20.55 8.47005 20.24 7.35005 20.24C5.63005 20.24 4.19005 21.2 3.03005 23.12V33.32H0.300049V18.02H2.70005L3.03005 19.94V20.39H3.09005C4.37005 18.61 6.05005 17.72 8.13005 17.72C9.25005 17.72 10.2 18.01 10.9801 18.59C11.78 19.17 12.35 19.89 12.69 20.75H12.78C14 18.73 15.82 17.72 18.24 17.72Z" fill="black"/>
<path d="M28.1384 18.86C29.8784 18.1 31.7384 17.72 33.7184 17.72C35.7184 17.72 37.2484 18.3 38.3084 19.46C39.3684 20.62 39.8984 22.01 39.8984 23.63V33.32H37.4984L37.1684 31.4H37.0784C35.6384 32.88 33.7884 33.62 31.5284 33.62C30.1684 33.62 29.0084 33.21 28.0484 32.39C27.1084 31.57 26.6384 30.45 26.6384 29.03C26.6384 27.61 27.2184 26.46 28.3784 25.58C29.5584 24.7 31.2784 24.26 33.5384 24.26H37.1684V24.02C37.1684 22.7 36.8384 21.75 36.1784 21.17C35.5384 20.59 34.4184 20.3 32.8184 20.3C31.2184 20.3 29.7184 20.64 28.3184 21.32H28.1384V18.86ZM37.1684 28.97V26.45H33.8984C30.8784 26.45 29.3684 27.25 29.3684 28.85C29.3684 30.43 30.4284 31.22 32.5484 31.22C33.4284 31.22 34.2784 31.01 35.0984 30.59C35.9184 30.15 36.6084 29.61 37.1684 28.97Z" fill="black"/>
<path d="M44.629 33.32V18.02H47.359V33.32H44.629ZM47.479 11.84V14.78H44.539V11.84H47.479Z" fill="black"/>
<path d="M55.1841 11.42V33.32H52.4541V11.42H55.1841Z" fill="black"/>
<path d="M73.5936 25.67V26.63H62.0136C62.1736 28.03 62.6936 29.12 63.5736 29.9C64.4536 30.68 65.7836 31.07 67.5636 31.07C69.3636 31.07 71.0236 30.57 72.5436 29.57H72.6936V32.21C71.0136 33.15 69.0336 33.62 66.7536 33.62C64.4936 33.62 62.6736 32.93 61.2936 31.55C59.9336 30.15 59.2536 28.27 59.2536 25.91C59.2536 23.53 59.8636 21.57 61.0836 20.03C62.3036 18.49 64.0836 17.72 66.4236 17.72C68.7636 17.72 70.5436 18.49 71.7636 20.03C72.9836 21.57 73.5936 23.45 73.5936 25.67ZM62.0136 24.41H70.8636C70.7836 22.97 70.2936 21.88 69.3936 21.14C68.5136 20.4 67.5236 20.03 66.4236 20.03C65.3236 20.03 64.3336 20.4 63.4536 21.14C62.5736 21.88 62.0936 22.97 62.0136 24.41Z" fill="black"/>
<path d="M85.6929 17.72H85.9329V20.33H85.6929C84.5129 20.33 83.4129 20.56 82.3929 21.02C81.3729 21.48 80.5729 22.12 79.9929 22.94V33.32H77.2629V18.02H79.6629L79.9929 19.94V20.39H80.0529C81.4929 18.61 83.3729 17.72 85.6929 17.72Z" fill="black"/>
<path fill-rule="evenodd" clip-rule="evenodd" d="M23.55 33.62H20.22V24.02C20.22 22.7452 19.9825 21.8783 19.5657 21.3574L19.5589 21.3489C19.1769 20.834 18.5078 20.54 17.46 20.54C15.8971 20.54 14.5559 21.3917 13.44 23.2043V33.62H10.11V24.02C10.11 22.7433 9.88182 21.8741 9.48192 21.3525L9.47904 21.3488C9.09797 20.8351 8.42008 20.54 7.35 20.54C5.78715 20.54 4.44594 21.3917 3.33 23.2043V33.62H0V17.72H2.95284L3.28551 19.6555C4.55925 18.1722 6.17912 17.42 8.13 17.42C9.30361 17.42 10.3185 17.7248 11.1576 18.3482C11.8631 18.86 12.4037 19.4796 12.7735 20.206C14.0448 18.3518 15.878 17.42 18.24 17.42C19.9596 17.42 21.2968 18.0336 22.202 19.2827C23.1017 20.4969 23.55 21.8999 23.55 23.48V33.62ZM12.9217 20.5241C14.1392 18.6547 15.9119 17.72 18.24 17.72C19.88 17.72 21.12 18.3 21.96 19.46C22.82 20.62 23.25 21.96 23.25 23.48V33.32H20.52V24.02C20.52 22.72 20.28 21.77 19.8 21.17C19.34 20.55 18.56 20.24 17.46 20.24C15.74 20.24 14.3 21.2 13.14 23.12V33.32H10.41V24.02C10.41 22.72 10.18 21.77 9.72 21.17C9.26 20.55 8.47 20.24 7.35 20.24C5.63 20.24 4.19 21.2 3.03 23.12V33.32H0.3V18.02H2.7L3.03 19.94V20.39H3.09C3.1685 20.2808 3.2485 20.175 3.33 20.0726C4.57756 18.5042 6.17756 17.72 8.13 17.72C9.25 17.72 10.2 18.01 10.98 18.59C11.7008 19.1126 12.2349 19.7488 12.5822 20.4986C12.6096 20.5577 12.6358 20.6175 12.6609 20.6781C12.6708 20.7019 12.6805 20.7259 12.69 20.75H12.78C12.7895 20.7343 12.799 20.7187 12.8085 20.7031C12.8457 20.6425 12.8834 20.5829 12.9217 20.5241ZM27.8384 18.6637L28.0183 18.5851C29.7978 17.8078 31.6988 17.42 33.7184 17.42C35.7781 17.42 37.3983 18.0194 38.5298 19.2576C39.642 20.4748 40.1984 21.9377 40.1984 23.63V33.62H37.2455L36.9561 31.9362C35.5061 33.2614 33.6899 33.92 31.5284 33.92C30.1029 33.92 28.8722 33.4882 27.8535 32.6181L27.8511 32.6161C26.8364 31.7309 26.3384 30.5233 26.3384 29.03C26.3384 27.5134 26.9645 26.276 28.197 25.341L28.199 25.3395C29.4519 24.4051 31.2463 23.96 33.5384 23.96H36.8681C36.8582 22.716 36.5397 21.8869 35.9803 21.3953L35.9769 21.3923C35.423 20.8904 34.4003 20.6 32.8184 20.6C31.2625 20.6 29.8074 20.9303 28.4494 21.5898L28.3874 21.62H27.8384V18.6637ZM37.1681 23.96C37.1683 23.9799 37.1684 23.9999 37.1684 24.02V24.26H33.5384C31.2784 24.26 29.5584 24.7 28.3784 25.58C27.2184 26.46 26.6384 27.61 26.6384 29.03C26.6384 30.45 27.1084 31.57 28.0484 32.39C29.0084 33.21 30.1684 33.62 31.5284 33.62C33.6937 33.62 35.4827 32.9407 36.8953 31.5821C36.9508 31.5286 37.0058 31.4741 37.0602 31.4186C37.0663 31.4124 37.0723 31.4062 37.0784 31.4H37.1684L37.4984 33.32H39.8984V23.63C39.8984 22.01 39.3684 20.62 38.3084 19.46C37.2484 18.3 35.7184 17.72 33.7184 17.72C31.7384 17.72 29.8784 18.1 28.1384 18.86V21.32H28.3184C28.3583 21.3006 28.3983 21.2815 28.4384 21.2627C29.804 20.6209 31.264 20.3 32.8184 20.3C34.4184 20.3 35.5384 20.59 36.1784 21.17C36.8283 21.7412 37.1582 22.6712 37.1681 23.96ZM44.329 33.62V17.72H47.659V33.62H44.329ZM47.779 11.54V15.08H44.239V11.54H47.779ZM55.4841 11.12V33.62H52.1541V11.12H55.4841ZM73.8935 26.93H62.3579C62.5509 28.1078 63.0274 29.0151 63.7725 29.6755C64.5754 30.3872 65.8204 30.77 67.5635 30.77C69.3042 30.77 70.907 30.2875 72.3786 29.3194L72.4537 29.27H72.9935V32.3859L72.84 32.4718C71.1076 33.4411 69.0753 33.92 66.7535 33.92C64.4276 33.92 62.5266 33.2073 61.0814 31.7621L61.0783 31.7591C59.6529 30.2917 58.9535 28.3307 58.9535 25.91C58.9535 23.4771 59.578 21.4472 60.8484 19.8437C62.1364 18.2178 64.0114 17.42 66.4235 17.42C68.8356 17.42 70.7107 18.2178 71.9987 19.8437C73.2661 21.4436 73.8935 23.3916 73.8935 25.67V26.93ZM62.0541 26.93C62.0386 26.8316 62.0251 26.7316 62.0135 26.63H73.5935V25.67C73.5935 23.45 72.9835 21.57 71.7635 20.03C70.5435 18.49 68.7635 17.72 66.4235 17.72C64.0835 17.72 62.3035 18.49 61.0835 20.03C59.8635 21.57 59.2535 23.53 59.2535 25.91C59.2535 28.27 59.9335 30.15 61.2935 31.55C62.6735 32.93 64.4935 33.62 66.7535 33.62C69.0335 33.62 71.0135 33.15 72.6935 32.21V29.57H72.5435C72.4937 29.6028 72.4437 29.635 72.3935 29.6668C70.9145 30.6023 69.3045 31.07 67.5635 31.07C65.7835 31.07 64.4535 30.68 63.5735 29.9C62.7574 29.1766 62.2509 28.1866 62.0541 26.93ZM69.203 21.3717L69.2004 21.3696C68.3718 20.6728 67.4495 20.33 66.4235 20.33C65.3976 20.33 64.4752 20.6728 63.6466 21.3696C62.9079 21.9908 62.463 22.892 62.338 24.11H70.5389C70.4126 22.894 69.9591 21.9934 69.203 21.3717ZM70.8404 24.11C70.8502 24.2082 70.8579 24.3082 70.8635 24.41H62.0135C62.0192 24.3082 62.0268 24.2082 62.0365 24.11C62.1633 22.8177 62.6357 21.8277 63.4535 21.14C64.3335 20.4 65.3235 20.03 66.4235 20.03C67.5235 20.03 68.5135 20.4 69.3935 21.14C70.2299 21.8277 70.7122 22.8177 70.8404 24.11ZM86.2329 17.42V20.63H85.6929C84.5531 20.63 83.4954 20.8519 82.5162 21.2935C81.5717 21.7194 80.834 22.3015 80.2929 23.0369V33.62H76.9629V17.72H79.9157L80.2563 19.7016C81.6926 18.1826 83.5112 17.42 85.6929 17.42H86.2329ZM80.2929 20.1062C80.2116 20.1981 80.1316 20.2927 80.0529 20.39H79.9929V19.94L79.6629 18.02H77.2629V33.32H79.9929V22.94C80.5729 22.12 81.3729 21.48 82.3929 21.02C83.4129 20.56 84.5129 20.33 85.6929 20.33H85.9329V17.72H85.6929C85.6729 17.72 85.6529 17.7201 85.6329 17.7202C83.4668 17.7346 81.6868 18.5299 80.2929 20.1062ZM33.8984 26.45C30.8784 26.45 29.3684 27.25 29.3684 28.85C29.3684 30.43 30.4284 31.22 32.5484 31.22C33.4284 31.22 34.2784 31.01 35.0984 30.59C35.9184 30.15 36.6084 29.61 37.1684 28.97V26.45H33.8984ZM36.8684 26.75H33.8984C32.4051 26.75 31.3315 26.9494 30.6413 27.3151C30.3007 27.4956 30.061 27.7125 29.9054 27.9598C29.7505 28.206 29.6684 28.4991 29.6684 28.85C29.6684 29.5661 29.9039 30.06 30.3426 30.387C30.7979 30.7263 31.5169 30.92 32.5484 30.92C33.3777 30.92 34.1801 30.7228 34.9591 30.3243C35.7129 29.9194 36.3482 29.4295 36.8684 28.8558V26.75ZM55.1841 11.42H52.4541V33.32H55.1841V11.42ZM44.629 18.02H47.359V33.32H44.629V18.02ZM47.479 14.78H44.539V11.84H47.479V14.78Z" fill="black"/>
<rect x="91.2329" width="86.1393" height="37.04" rx="8" fill="#201DC2"/>
<path d="M101.517 8V7.9H101.417H99.2329H99.1329V8V25.52V25.62H99.2329H101.417H101.517V25.52V8ZM105.388 25.52V25.62H105.488H107.672H107.772V25.52V13.28V13.18H107.672H105.488H105.388V13.28V25.52ZM107.868 8.336V8.236H107.768H105.416H105.316V8.336V10.688V10.788H105.416H107.768H107.868V10.688V8.336ZM113.477 25.62H113.561L113.575 25.5369L113.817 24.1315C114.954 25.2819 116.298 25.86 117.845 25.86C119.424 25.86 120.801 25.2725 121.971 24.1029C123.161 22.9288 123.753 21.3574 123.753 19.4C123.753 17.4426 123.161 15.8712 121.971 14.697C120.801 13.5275 119.424 12.94 117.845 12.94C116.309 12.94 114.973 13.5101 113.841 14.6444V8V7.9H113.741H111.557H111.457V8V25.52V25.62H111.557H113.477ZM133.733 13.04V12.94H133.633H133.441C131.624 12.94 130.135 13.6133 128.981 14.9574V14.816V14.8075L128.98 14.7991L128.716 13.2631L128.701 13.18H128.617H126.697H126.597V13.28V25.52V25.62H126.697H128.881H128.981V25.52V17.248C129.432 16.6204 130.051 16.1278 130.842 15.7712C131.645 15.4093 132.511 15.228 133.441 15.228H133.633H133.733V15.128V13.04ZM136.154 13.8604L136.094 13.8866V13.952V15.92V16.02H136.194H136.338H136.361L136.382 16.01C137.488 15.4728 138.673 15.204 139.938 15.204C141.212 15.204 142.076 15.4361 142.559 15.8741L142.56 15.8751C143.058 16.3123 143.318 17.0382 143.318 18.08V18.172H140.514C138.696 18.172 137.295 18.5257 136.327 19.2478L136.326 19.2483C135.374 19.9707 134.894 20.9198 134.894 22.088C134.894 23.2484 135.28 24.1736 136.057 24.8514L136.057 24.852C136.845 25.5247 137.797 25.86 138.906 25.86C140.699 25.86 142.181 25.2845 143.342 24.1305L143.584 25.5369L143.598 25.62H143.682H145.602H145.702V25.52V17.768C145.702 16.4479 145.27 15.3116 144.404 14.3645C143.532 13.4105 142.278 12.94 140.658 12.94C139.061 12.94 137.56 13.2466 136.154 13.8604ZM156.327 13.04V12.94H156.227H156.035C154.218 12.94 152.729 13.6133 151.575 14.9574V14.816V14.8075L151.573 14.7991L151.309 13.2631L151.295 13.18H151.211H149.291H149.191V13.28V25.52V25.62H149.291H151.475H151.575V25.52V17.248C152.026 16.6204 152.645 16.1278 153.436 15.7712C154.238 15.4093 155.104 15.228 156.035 15.228H156.227H156.327V15.128V13.04ZM169.465 13.3183L169.522 13.18H169.372H167.02H166.953L166.928 13.2423L163.037 22.8033L159.241 13.2431L159.216 13.18H159.148H156.796H156.647L156.704 13.3177L161.753 25.7129L159.703 31.0039L159.65 31.14H159.796H162.004H162.071L162.097 31.0783L169.465 13.3183ZM120.316 22.5228C119.618 23.2524 118.693 23.62 117.533 23.62C116.136 23.62 114.906 23.0442 113.841 21.8813V16.9187C114.906 15.7558 116.136 15.18 117.533 15.18C118.693 15.18 119.618 15.5476 120.316 16.2772C121.013 17.0052 121.369 18.0412 121.369 19.4C121.369 20.7588 121.013 21.7948 120.316 22.5228ZM140.802 20.124H143.318V22.0022C142.884 22.4919 142.35 22.9071 141.716 23.2474C141.074 23.5763 140.41 23.74 139.722 23.74C138.884 23.74 138.273 23.5833 137.874 23.2858C137.481 22.9925 137.278 22.5514 137.278 21.944C137.278 21.6404 137.35 21.3793 137.49 21.1573C137.629 20.9348 137.842 20.7459 138.131 20.5924C138.714 20.2838 139.6 20.124 140.802 20.124Z" fill="#2EE8F5" stroke="#2EE8F5" stroke-width="0.2"/>
<rect x="91.2329" y="41.04" width="86.1393" height="4" rx="2" fill="#201DC2"/>
</svg>
