<svg width="49" height="48" viewBox="0 0 49 48" fill="none" xmlns="http://www.w3.org/2000/svg">
<g clip-path="url(#clip0_317_4286)">
<path d="M9.666 34.642C7.606 32.454 6.5 30 6.5 26.022C6.5 19.022 11.414 12.748 18.56 9.646L20.346 12.402C13.676 16.01 12.372 20.692 11.852 23.644C12.926 23.088 14.332 22.894 15.71 23.022C19.318 23.356 22.162 26.318 22.162 30C22.162 31.8565 21.4245 33.637 20.1117 34.9497C18.799 36.2625 17.0185 37 15.162 37C13.016 37 10.964 36.02 9.666 34.642ZM29.666 34.642C27.606 32.454 26.5 30 26.5 26.022C26.5 19.022 31.414 12.748 38.56 9.646L40.346 12.402C33.676 16.01 32.372 20.692 31.852 23.644C32.926 23.088 34.332 22.894 35.71 23.022C39.318 23.356 42.162 26.318 42.162 30C42.162 31.8565 41.4245 33.637 40.1118 34.9497C38.799 36.2625 37.0185 37 35.162 37C33.016 37 30.964 36.02 29.666 34.642Z" fill="black"/>
</g>
<defs>
<clipPath id="clip0_317_4286">
<rect width="48" height="48" fill="white" transform="translate(0.5)"/>
</clipPath>
</defs>
</svg>
